<svg xmlns="http://www.w3.org/2000/svg" width="957.5" height="408.917" xml:space="preserve"><path fill="#414549" d="M513.218 213.817v-90.05c0-30.019-25.348-45.36-52.03-45.36-32.351 0-52.695 25.681-52.695 56.032 0 29.684 21.68 54.701 52.361 54.701 16.675 0 19.189-6.325 26.843-6.325 5.569 0 17.073.264 17.073 13.988 0 3.286-1.601 5.108-3.292 6.799-.569.569-23.282 13.549-43.623 13.549-46.028 0-78.714-38.02-78.714-85.047 0-45.691 31.353-81.714 82.713-81.714 49.361 0 80.714 30.022 80.714 76.047V214.135c-3.898-.001-29.35-.318-29.35-.318z"/><path fill="#5DC1A3" d="M87.483 82.089H30.084v84.094c0 15.019 7.012 20.025 22.025 20.025h35.373v28.029H48.107c-30.033 0-47.388-20.025-47.388-51.725V32.188s1.11-8.244 6.443-12.651c5.334-4.406 22.306-5.521 22.306-5.521h.616v40.042h57.398v28.031zM154.556 161.512l-12.011-23.358 79.083-44.05c-10.009-10.009-18.35-15.35-36.371-15.35-30.366 0-52.391 22.692-52.391 55.394 0 32.704 22.025 55.396 52.391 55.396 34.705 0 47.721-20.691 53.726-50.056l29.7 3.671c-3.339 42.38-37.373 74.414-83.426 74.414-44.383 0-83.092-34.038-83.092-83.425 0-49.386 38.708-83.423 83.092-83.423 37.375 0 62.402 19.69 77.416 50.721l-108.117 60.066zM296.745 58.778c4.481-4.691 17.728-4.72 17.728-4.72h5.935v18.357h.667c10.013-15.686 23.694-21.69 43.383-21.69h6.671v28.029h-4.336c-28.364 0-45.05 17.354-45.05 60.734v74.75h-29.366V72.443c-.001 0-.446-8.628 4.368-13.665zM569.354 286.314V138.821c0-52.726 33.7-88.097 80.754-88.097 52.059 0 82.757 40.042 82.757 87.43 0 44.712-36.04 79.418-77.082 79.418-16.021 0-48.964-10.343-62.981-18.354v-30.7c10.679 7.34 44.623 21.024 57.973 21.024 31.702 0 52.728-22.024 52.728-55.06 0-32.704-22.025-55.729-53.394-55.729-28.031 0-51.387 21.357-51.387 65.405v142.156h-29.368zM787.929.669c11.346 0 17.688 8.676 17.688 17.685 0 9.013-6.341 17.688-17.688 17.688-11.345 0-17.685-8.675-17.685-17.688 0-9.009 6.339-17.685 17.685-17.685zm-14.683 213.569V74.215s.348-9.241 5.735-14.395c5.388-5.152 16.617-5.762 16.617-5.762h7.014v160.18h-29.366zM957.115 82.089h-22.692c-27.694 0-55.058 18.021-55.058 52.059s27.364 52.061 55.058 52.061h22.692v28.029h-28.029c-37.373 0-80.421-28.699-80.421-80.09 0-51.39 43.048-80.09 80.421-80.09h28.029v28.031z"/><g fill="#414549"><path d="M11.449 327.135v57.17H8.342v-57.17H.91v-2.95h7.432V318.4c0-19.397 14.199-19.51 14.976-19.51v2.949c-6.767.567-11.87 4.764-11.87 16.675v5.671h18.858v60.12H27.2v-57.17H11.449zm15.752-16.448v-10.322h3.106v10.322h-3.106zM70.799 338.364c0-9.642-5.214-12.705-11.537-12.705-6.212 0-10.871 4.765-10.871 11.684 0 7.827 4.881 11.457 12.313 13.725 6.323 1.929 14.532 6.012 14.532 17.923 0 10.209-6.767 16.788-15.53 16.788-10.316 0-16.307-6.579-16.307-18.149h2.884c0 10.436 5.546 15.2 13.201 15.2s12.646-5.332 12.646-13.385c0-8.621-3.994-12.818-12.535-15.654-7.987-2.609-14.31-6.353-14.31-16.334 0-9.302 6.877-14.747 14.088-14.747 8.32 0 14.31 4.878 14.31 15.654h-2.884zM88.883 300.364h3.106v10.209h-3.106v-10.209zm0 23.821h3.106v60.12h-3.106v-60.12zM104.969 354.132c0-17.015 6.767-31.421 22.741-31.421 15.863 0 22.63 14.406 22.63 31.535s-6.767 31.535-22.63 31.535c-15.974 0-22.741-14.406-22.741-31.535v-.114zm3.106.226c0 17.015 6.434 28.472 19.635 28.472 13.09 0 19.524-11.457 19.524-28.585S140.8 325.66 127.71 325.66c-13.201 0-19.635 11.457-19.635 28.585v.113zM166.428 327.135h-9.429v-2.95h9.429v-23.821h3.106v23.821h9.429v2.95h-9.429v57.17h-3.106v-57.17zM187.063 354.585c0 16.675 7.1 28.245 19.413 28.245 9.207 0 15.086-6.579 16.861-14.747h2.884c-.999 4.764-3.217 9.188-6.545 12.478-3.328 3.176-7.654 5.218-13.201 5.218-16.751 0-22.52-17.128-22.52-31.421 0-19.51 9.318-31.648 22.076-31.648 6.323 0 11.537 2.949 14.976 7.714 4.992 6.806 5.99 15.88 5.99 24.161h-39.934zm36.829-2.949c-.444-18.036-8.32-25.977-18.415-25.977-10.872 0-18.082 11.797-18.415 25.977h36.83zM239.092 324.185h3.106c0 7.487 0 11.344-.333 15.654 3.328-14.406 12.424-16.901 16.085-17.128v2.949h-.555c-4.77 0-15.198 7.374-15.198 28.245v30.4h-3.106v-60.12zM303.545 384.305h-3.106c0-7.487 0-11.57.222-15.087-2.663 10.209-9.429 16.562-18.082 16.562-12.535 0-20.522-14.292-20.522-31.421 0-17.469 7.987-31.648 20.522-31.648 7.654 0 14.31 4.311 18.082 16.562-.222-4.651-.222-8.961-.222-15.087h3.106v60.119zm-38.382-29.947c0 13.839 5.879 28.472 17.638 28.472 5.879 0 10.316-3.63 13.201-9.075 2.995-5.445 4.437-12.591 4.437-19.511 0-7.033-1.442-14.179-4.437-19.511-2.884-5.445-7.322-9.075-13.201-9.075-11.759 0-17.638 14.633-17.638 28.585v.115zM319.3 324.185h3.106c0 6.125 0 10.436-.222 15.087 3.771-12.251 10.428-16.562 18.082-16.562 12.535 0 20.522 14.179 20.522 31.648 0 17.129-7.987 31.421-20.522 31.421-8.653 0-15.419-6.352-18.082-16.562.222 3.517.222 7.6.222 15.087v24.162H319.3v-84.281zm38.382 29.947c0-13.839-5.879-28.472-17.638-28.472-5.879 0-10.316 3.63-13.201 9.075-2.995 5.332-4.438 12.478-4.438 19.511 0 6.919 1.442 14.066 4.438 19.511 2.884 5.445 7.321 9.075 13.201 9.075 11.759 0 17.638-14.633 17.638-28.585v-.115zM373.77 300.364h3.106v10.209h-3.106v-10.209zm0 23.821h3.106v60.12h-3.106v-60.12zM431.344 384.305h-3.106c0-7.487 0-11.57.222-15.087-2.663 10.209-9.429 16.562-18.082 16.562-12.535 0-20.522-14.292-20.522-31.421 0-17.469 7.987-31.648 20.522-31.648 7.654 0 14.31 4.311 18.082 16.562-.222-4.651-.222-8.961-.222-15.087h3.106v60.119zm-38.382-29.947c0 13.839 5.879 28.472 17.638 28.472 5.879 0 10.316-3.63 13.201-9.075 2.995-5.445 4.437-12.591 4.437-19.511 0-7.033-1.442-14.179-4.437-19.511-2.884-5.445-7.321-9.075-13.201-9.075-11.759 0-17.638 14.633-17.638 28.585v.115zM482.375 384.305l-17.638-60.12h3.217l15.974 56.15 17.638-56.15h2.995l-27.067 84.282H474.5l7.875-24.162zM534.515 354.132c0-17.015 6.767-31.421 22.741-31.421 15.863 0 22.63 14.406 22.63 31.535s-6.767 31.535-22.63 31.535c-15.974 0-22.741-14.406-22.741-31.535v-.114zm3.106.226c0 17.015 6.434 28.472 19.635 28.472 13.09 0 19.524-11.457 19.524-28.585s-6.434-28.585-19.524-28.585c-13.201 0-19.635 11.457-19.635 28.585v.113zM617.051 338.364c0-9.642-5.214-12.705-11.537-12.705-6.212 0-10.871 4.765-10.871 11.684 0 7.827 4.881 11.457 12.313 13.725 6.323 1.929 14.532 6.012 14.532 17.923 0 10.209-6.767 16.788-15.53 16.788-10.316 0-16.307-6.579-16.307-18.149h2.884c0 10.436 5.547 15.2 13.201 15.2s12.646-5.332 12.646-13.385c0-8.621-3.994-12.818-12.535-15.654-7.987-2.609-14.31-6.353-14.31-16.334 0-9.302 6.877-14.747 14.088-14.747 8.32 0 14.31 4.878 14.31 15.654h-2.884zM638.242 327.135h-9.429v-2.95h9.429v-23.821h3.106v23.821h9.429v2.95h-9.429v57.17h-3.106v-57.17zM658.876 354.585c0 16.675 7.1 28.245 19.413 28.245 9.207 0 15.086-6.579 16.861-14.747h2.884c-.999 4.764-3.217 9.188-6.545 12.478-3.328 3.176-7.654 5.218-13.201 5.218-16.751 0-22.52-17.128-22.52-31.421 0-19.51 9.318-31.648 22.076-31.648 6.323 0 11.537 2.949 14.976 7.714 4.992 6.806 5.99 15.88 5.99 24.161h-39.934zm36.829-2.949c-.444-18.036-8.32-25.977-18.415-25.977-10.872 0-18.082 11.797-18.415 25.977h36.83zM707.578 354.132c0-17.015 6.767-31.421 22.741-31.421 15.863 0 22.63 14.406 22.63 31.535s-6.767 31.535-22.63 31.535c-15.974 0-22.741-14.406-22.741-31.535v-.114zm3.106.226c0 17.015 6.434 28.472 19.635 28.472 13.09 0 19.524-11.457 19.524-28.585s-6.434-28.585-19.524-28.585c-13.201 0-19.635 11.457-19.635 28.585v.113zM765.376 324.185h3.106c0 6.125 0 10.436-.222 15.087 3.771-12.251 10.428-16.562 18.082-16.562 12.535 0 20.522 14.179 20.522 31.648 0 17.129-7.987 31.421-20.522 31.421-8.653 0-15.42-6.352-18.082-16.562.222 3.517.222 7.6.222 15.087v24.162h-3.106v-84.281zm38.383 29.947c0-13.839-5.879-28.472-17.638-28.472-5.879 0-10.316 3.63-13.201 9.075-2.995 5.332-4.438 12.478-4.438 19.511 0 6.919 1.442 14.066 4.438 19.511 2.884 5.445 7.321 9.075 13.201 9.075 11.759 0 17.638-14.633 17.638-28.585v-.115zM857.452 384.305h-3.106c0-7.487 0-11.57.222-15.087-2.663 10.209-9.429 16.562-18.082 16.562-12.535 0-20.522-14.292-20.522-31.421 0-17.469 7.987-31.648 20.522-31.648 7.654 0 14.31 4.311 18.082 16.562-.222-4.651-.222-8.961-.222-15.087h3.106v60.119zm-38.382-29.947c0 13.839 5.879 28.472 17.638 28.472 5.879 0 10.316-3.63 13.201-9.075 2.995-5.445 4.437-12.591 4.437-19.511 0-7.033-1.442-14.179-4.437-19.511-2.884-5.445-7.322-9.075-13.201-9.075-11.759 0-17.638 14.633-17.638 28.585v.115zM876.868 327.135h-9.429v-2.95h9.429v-23.821h3.106v23.821h9.429v2.95h-9.429v57.17h-3.106v-57.17zM913.92 299.684l1.553 2.609-24.183 14.52-1.442-2.609 24.072-14.52zm-13.978 24.501h3.106v60.12h-3.106v-60.12zM957.517 384.305h-3.106c0-7.487 0-11.57.222-15.087-2.662 10.209-9.429 16.562-18.081 16.562-12.536 0-20.522-14.292-20.522-31.421 0-17.469 7.986-31.648 20.522-31.648 7.654 0 14.31 4.311 18.081 16.562-.222-4.651-.222-8.961-.222-15.087h3.106v60.119zm-38.383-29.947c0 13.839 5.88 28.472 17.639 28.472 5.879 0 10.316-3.63 13.2-9.075 2.995-5.445 4.438-12.591 4.438-19.511 0-7.033-1.442-14.179-4.438-19.511-2.884-5.445-7.321-9.075-13.2-9.075-11.759 0-17.639 14.633-17.639 28.585v.115z"/></g><path fill="#88E6A4" d="M1837.507 213.817v-90.05c0-30.019-25.348-45.36-52.029-45.36-32.352 0-52.695 25.681-52.695 56.032 0 29.684 21.68 54.701 52.361 54.701 16.676 0 19.189-6.325 26.843-6.325 5.569 0 17.073.264 17.073 13.988 0 3.286-1.602 5.108-3.293 6.799-.568.569-23.281 13.549-43.623 13.549-46.027 0-78.713-38.02-78.713-85.047 0-45.691 31.352-81.714 82.713-81.714 49.361 0 80.715 30.022 80.715 76.047V214.135c-3.9-.001-29.352-.318-29.352-.318z"/><path fill="#5DC1A3" d="M1411.772 82.089h-57.398v84.094c0 15.019 7.012 20.025 22.025 20.025h35.373v28.029h-39.376c-30.033 0-47.388-20.025-47.388-51.725V32.188s1.11-8.244 6.443-12.651c5.334-4.406 22.306-5.521 22.306-5.521h.616v40.042h57.398v28.031zM1478.845 161.512l-12.011-23.358 79.083-44.05c-10.008-10.009-18.35-15.35-36.371-15.35-30.365 0-52.391 22.692-52.391 55.394 0 32.704 22.025 55.396 52.391 55.396 34.705 0 47.722-20.691 53.727-50.056l29.699 3.671c-3.339 42.38-37.373 74.414-83.426 74.414-44.383 0-83.092-34.038-83.092-83.425 0-49.386 38.709-83.423 83.092-83.423 37.376 0 62.402 19.69 77.416 50.721l-108.117 60.066zM1621.034 58.778c4.481-4.691 17.728-4.72 17.728-4.72h5.935v18.357h.667c10.013-15.686 23.694-21.69 43.384-21.69h6.671v28.029h-4.336c-28.364 0-45.05 17.354-45.05 60.734v74.75h-29.367V72.443c-.001 0-.446-8.628 4.368-13.665zM1893.644 286.314V138.821c0-52.726 33.699-88.097 80.754-88.097 52.059 0 82.756 40.042 82.756 87.43 0 44.712-36.039 79.418-77.082 79.418-16.021 0-48.964-10.343-62.98-18.354v-30.7c10.679 7.34 44.623 21.024 57.973 21.024 31.702 0 52.728-22.024 52.728-55.06 0-32.704-22.025-55.729-53.394-55.729-28.031 0-51.388 21.357-51.388 65.405v142.156h-29.367zM2112.218.669c11.346 0 17.688 8.676 17.688 17.685 0 9.013-6.342 17.688-17.688 17.688s-17.686-8.675-17.686-17.688c0-9.009 6.34-17.685 17.686-17.685zm-14.683 213.569V74.215s.348-9.241 5.735-14.395c5.389-5.152 16.617-5.762 16.617-5.762h7.014v160.18h-29.366zM2281.404 82.089h-22.692c-27.694 0-55.059 18.021-55.059 52.059s27.364 52.061 55.059 52.061h22.692v28.029h-28.029c-37.373 0-80.421-28.699-80.421-80.09 0-51.39 43.048-80.09 80.421-80.09h28.029v28.031z"/><g fill="#88E6A4"><path d="M1331.488 300.364h3.176v10.209h-3.176v-10.209zm0 23.821h3.176v60.12h-3.176v-60.12zM1351.338 324.185h3.177c0 4.311 0 8.281-.341 13.159 3.631-11.117 12.932-14.633 19.625-14.633 10.775 0 18.262 6.353 18.262 22.347v39.248h-3.176v-38.227c0-7.374-.794-20.418-14.973-20.418-11.797 0-19.397 8.735-19.397 25.977v32.669h-3.177v-60.122zM1409.643 327.135h-7.601v-2.95h7.601V318.4c0-19.397 14.52-19.51 15.313-19.51v2.949c-6.919.567-12.137 4.764-12.137 16.675v5.671h12.137v2.95h-12.137v57.17h-3.176v-57.17zM1469.987 384.305h-3.176c0-7.487 0-11.57.227-15.087-2.722 10.209-9.642 16.562-18.489 16.562-12.818 0-20.985-14.292-20.985-31.421 0-17.469 8.167-31.648 20.985-31.648 7.826 0 14.633 4.311 18.489 16.562-.227-4.651-.227-8.961-.227-15.087h3.176v60.119zm-39.248-29.947c0 13.839 6.013 28.472 18.036 28.472 6.012 0 10.549-3.63 13.498-9.075 3.063-5.445 4.538-12.591 4.538-19.511 0-7.033-1.475-14.179-4.538-19.511-2.949-5.445-7.486-9.075-13.498-9.075-12.023 0-18.036 14.633-18.036 28.585v.115zM1486.094 324.185h3.177c0 4.311 0 8.281-.341 13.159 3.631-11.117 12.932-14.633 19.625-14.633 10.775 0 18.262 6.353 18.262 22.347v39.248h-3.176v-38.227c0-7.374-.794-20.418-14.973-20.418-11.797 0-19.397 8.735-19.397 25.977v32.669h-3.177v-60.122zM1546.213 327.135h-9.642v-2.95h9.642v-23.821h3.176v23.821h9.643v2.95h-9.643v57.17h-3.176v-57.17zM1594.535 338.364c0-9.642-5.332-12.705-11.797-12.705-6.353 0-11.117 4.765-11.117 11.684 0 7.827 4.991 11.457 12.592 13.725 6.465 1.929 14.859 6.012 14.859 17.923 0 10.209-6.92 16.788-15.881 16.788-10.549 0-16.675-6.579-16.675-18.149h2.949c0 10.436 5.672 15.2 13.499 15.2 7.826 0 12.932-5.332 12.932-13.385 0-8.621-4.084-12.818-12.818-15.654-8.167-2.609-14.633-6.353-14.633-16.334 0-9.302 7.033-14.747 14.406-14.747 8.508 0 14.633 4.878 14.633 15.654h-2.949z"/></g></svg>